<?xml version="1.0" encoding="UTF-8"?> <svg xmlns="http://www.w3.org/2000/svg" viewBox="0 0 227.68 125.85"> <title>useid_logo_official</title> <path d="M157.68,81.22a15.47,15.47,0,0,1-15.39-15.39V7.94a14.78,14.78,0,0,1,10.85,4.54,14.78,14.78,0,0,1,4.54,10.85Z" transform="translate(-11.89 -7.94)" style="fill:#1b75bc"></path> <path d="M176.23,18.7a37.22,37.22,0,0,1,52.35,0,35,35,0,0,1,11,26,34.79,34.79,0,0,1-10.95,25.88,36.22,36.22,0,0,1-26.24,10.67h-37.1V44.67A35.11,35.11,0,0,1,176.23,18.7Zm26.15,48a20.55,20.55,0,0,0,15.34-6.46A21.51,21.51,0,0,0,224,44.67a21.83,21.83,0,0,0-6.28-15.62,21.26,21.26,0,0,0-30.68,0,21.79,21.79,0,0,0-6.28,15.62v22Z" transform="translate(-11.89 -7.94)" style="fill:#1b75bc"></path> <path d="M57.21,88.47v45.32H11.89V88.47H22.35v34.86h24.4V88.47Z" transform="translate(-11.89 -7.94)" style="fill:#58595b"></path> <path d="M107.13,88.47V98.93H72.27v6.95h34.86v27.91H61.8V123.33H96.67v-7H61.8V88.47Z" transform="translate(-11.89 -7.94)" style="fill:#58595b"></path> <path d="M157,88.47V98.93H122.18v6.95H157v10.46H122.18v7H157v10.46H111.72V88.47Z" transform="translate(-11.89 -7.94)" style="fill:#58595b"></path> </svg> 